<mxfile host="drawio-plugin" modified="2022-10-26T15:52:37.745Z" agent="5.0 (Windows NT 6.2; Win64; x64) AppleWebKit/537.36 (KHTML, like Gecko) Chrome/98.0.4758.102 Safari/537.36" etag="-ko4ayB9zY_HMIX91U-Q" version="15.5.4" type="embed"><diagram id="Dt8ZmXOJA0QHKCVdsrV8" name="Page-1"><mxGraphModel dx="2033" dy="1990" grid="1" gridSize="10" guides="1" tooltips="1" connect="1" arrows="1" fold="1" page="1" pageScale="1" pageWidth="827" pageHeight="1169" background="#ffffff" math="0" shadow="1"><root><mxCell id="0"/><mxCell id="1" parent="0"/><mxCell id="53" value="user" style="swimlane;fontStyle=1;childLayout=stackLayout;horizontal=1;startSize=30;horizontalStack=0;resizeParent=1;resizeParentMax=0;resizeLast=0;collapsible=1;marginBottom=0;strokeColor=#10739e;labelBackgroundColor=none;fillColor=#b1ddf0;fontColor=#000000;" parent="1" vertex="1"><mxGeometry x="-120" y="80" width="240" height="270" as="geometry"/></mxCell><mxCell id="54" value="Login: String" style="text;align=left;verticalAlign=middle;spacingLeft=4;spacingRight=4;overflow=hidden;points=[[0,0.5],[1,0.5]];portConstraint=eastwest;rotatable=0;strokeColor=#000000;fontColor=#000000;labelBackgroundColor=none;fontStyle=5" parent="53" vertex="1"><mxGeometry y="30" width="240" height="30" as="geometry"/></mxCell><mxCell id="82" value="hashedPassword: ?" style="text;align=left;verticalAlign=middle;spacingLeft=4;spacingRight=4;overflow=hidden;points=[[0,0.5],[1,0.5]];portConstraint=eastwest;rotatable=0;strokeColor=#000000;fontColor=#000000;labelBackgroundColor=none;fontStyle=5" parent="53" vertex="1"><mxGeometry y="60" width="240" height="30" as="geometry"/></mxCell><mxCell id="55" value="Category: Char" style="text;align=left;verticalAlign=middle;spacingLeft=4;spacingRight=4;overflow=hidden;points=[[0,0.5],[1,0.5]];portConstraint=eastwest;rotatable=0;strokeColor=#000000;fontColor=#000000;labelBackgroundColor=none;fontStyle=1" parent="53" vertex="1"><mxGeometry y="90" width="240" height="30" as="geometry"/></mxCell><mxCell id="56" value="Name: String" style="text;align=left;verticalAlign=middle;spacingLeft=4;spacingRight=4;overflow=hidden;points=[[0,0.5],[1,0.5]];portConstraint=eastwest;rotatable=0;strokeColor=#000000;fontColor=#000000;labelBackgroundColor=none;fontStyle=1" parent="53" vertex="1"><mxGeometry y="120" width="240" height="30" as="geometry"/></mxCell><mxCell id="57" value="Surname: String" style="text;align=left;verticalAlign=middle;spacingLeft=4;spacingRight=4;overflow=hidden;points=[[0,0.5],[1,0.5]];portConstraint=eastwest;rotatable=0;strokeColor=#000000;fontColor=#000000;labelBackgroundColor=none;fontStyle=1" parent="53" vertex="1"><mxGeometry y="150" width="240" height="30" as="geometry"/></mxCell><mxCell id="58" value="Email: String" style="text;align=left;verticalAlign=middle;spacingLeft=4;spacingRight=4;overflow=hidden;points=[[0,0.5],[1,0.5]];portConstraint=eastwest;rotatable=0;strokeColor=#000000;fontColor=#000000;labelBackgroundColor=none;fontStyle=1" parent="53" vertex="1"><mxGeometry y="180" width="240" height="30" as="geometry"/></mxCell><mxCell id="59" value="maxPossession: Int(j)" style="text;align=left;verticalAlign=middle;spacingLeft=4;spacingRight=4;overflow=hidden;points=[[0,0.5],[1,0.5]];portConstraint=eastwest;rotatable=0;strokeColor=#000000;fontColor=#000000;labelBackgroundColor=none;fontStyle=1" parent="53" vertex="1"><mxGeometry y="210" width="240" height="30" as="geometry"/></mxCell><mxCell id="60" value="maxBorrowing: Int" style="text;align=left;verticalAlign=middle;spacingLeft=4;spacingRight=4;overflow=hidden;points=[[0,0.5],[1,0.5]];portConstraint=eastwest;rotatable=0;strokeColor=#000000;fontColor=#000000;labelBackgroundColor=none;fontStyle=1" parent="53" vertex="1"><mxGeometry y="240" width="240" height="30" as="geometry"/></mxCell><mxCell id="65" value="" style="swimlane;startSize=0;fontColor=#000000;strokeColor=#000000;" parent="1" vertex="1"><mxGeometry x="-200" y="22.5" width="1540" height="827.5" as="geometry"/></mxCell><mxCell id="87" value="hasBorrowed" style="swimlane;fontStyle=1;childLayout=stackLayout;horizontal=1;startSize=30;horizontalStack=0;resizeParent=1;resizeParentMax=0;resizeLast=0;collapsible=1;marginBottom=0;strokeColor=#ae4132;labelBackgroundColor=none;fillColor=#fad9d5;fontColor=#000000;" parent="65" vertex="1"><mxGeometry x="1190" y="57.5" width="210" height="116" as="geometry"/></mxCell><mxCell id="88" value="BookCopyId: Int" style="text;align=left;verticalAlign=middle;spacingLeft=4;spacingRight=4;overflow=hidden;points=[[0,0.5],[1,0.5]];portConstraint=eastwest;rotatable=0;strokeColor=#000000;fontColor=#000000;labelBackgroundColor=none;fontStyle=5" parent="87" vertex="1"><mxGeometry y="30" width="210" height="30" as="geometry"/></mxCell><mxCell id="89" value="UserPseudo: String" style="text;align=left;verticalAlign=middle;spacingLeft=4;spacingRight=4;overflow=hidden;points=[[0,0.5],[1,0.5]];portConstraint=eastwest;rotatable=0;strokeColor=#000000;fontColor=#000000;labelBackgroundColor=none;fontStyle=5" parent="87" vertex="1"><mxGeometry y="60" width="210" height="30" as="geometry"/></mxCell><mxCell id="90" value="Date: mm/dd/yy" style="text;align=left;verticalAlign=top;spacingLeft=4;spacingRight=4;overflow=hidden;rotatable=0;points=[[0,0.5],[1,0.5]];portConstraint=eastwest;strokeColor=#000000;fontColor=#000000;labelBackgroundColor=none;fontStyle=1" parent="87" vertex="1"><mxGeometry y="90" width="210" height="26" as="geometry"/></mxCell><mxCell id="61" value="Relational modeling" style="text;html=1;align=center;verticalAlign=middle;whiteSpace=wrap;rounded=0;labelBorderColor=none;fontStyle=1;fillColor=#b1ddf0;strokeColor=#10739e;fontColor=#000000;" parent="65" vertex="1"><mxGeometry x="1400" width="140" height="30" as="geometry"/></mxCell><mxCell id="66" value="" style="swimlane;startSize=0;labelBorderColor=none;fontColor=#000000;strokeColor=none;fillColor=none;" parent="1" vertex="1"><mxGeometry x="-260" y="-30" width="1690" height="940" as="geometry"/></mxCell><mxCell id="77" value="ChangeCategory" style="swimlane;fontStyle=1;childLayout=stackLayout;horizontal=1;startSize=26;horizontalStack=0;resizeParent=1;resizeParentMax=0;resizeLast=0;collapsible=1;marginBottom=0;strokeColor=#ae4132;labelBackgroundColor=none;fillColor=#fad9d5;fontColor=#000000;" parent="66" vertex="1"><mxGeometry x="860" y="421" width="220" height="138" as="geometry"/></mxCell><mxCell id="79" value="userLogin: String" style="text;align=left;verticalAlign=middle;spacingLeft=4;spacingRight=4;overflow=hidden;points=[[0,0.5],[1,0.5]];portConstraint=eastwest;rotatable=0;strokeColor=#000000;fontColor=#000000;labelBackgroundColor=none;fontStyle=5" parent="77" vertex="1"><mxGeometry y="26" width="220" height="30" as="geometry"/></mxCell><mxCell id="80" value="managerCategory: String" style="text;align=left;verticalAlign=middle;spacingLeft=4;spacingRight=4;overflow=hidden;points=[[0,0.5],[1,0.5]];portConstraint=eastwest;rotatable=0;strokeColor=#000000;fontColor=#000000;labelBackgroundColor=none;fontStyle=5" parent="77" vertex="1"><mxGeometry y="56" width="220" height="30" as="geometry"/></mxCell><mxCell id="78" value="changingDate: mm/dd/yy" style="text;align=left;verticalAlign=top;spacingLeft=4;spacingRight=4;overflow=hidden;rotatable=0;points=[[0,0.5],[1,0.5]];portConstraint=eastwest;strokeColor=#000000;fontColor=#000000;labelBackgroundColor=none;fontStyle=1" parent="77" vertex="1"><mxGeometry y="86" width="220" height="26" as="geometry"/></mxCell><mxCell id="81" value="newUserCategory: Char" style="text;align=left;verticalAlign=top;spacingLeft=4;spacingRight=4;overflow=hidden;rotatable=0;points=[[0,0.5],[1,0.5]];portConstraint=eastwest;strokeColor=#000000;fontColor=#000000;labelBackgroundColor=none;fontStyle=1" parent="77" vertex="1"><mxGeometry y="112" width="220" height="26" as="geometry"/></mxCell><mxCell id="6" value="book" style="swimlane;fontStyle=1;childLayout=stackLayout;horizontal=1;startSize=30;horizontalStack=0;resizeParent=1;resizeParentMax=0;resizeLast=0;collapsible=1;marginBottom=0;strokeColor=#10739e;labelBackgroundColor=none;fillColor=#b1ddf0;fontColor=#000000;" parent="66" vertex="1"><mxGeometry x="480" y="110" width="240" height="150" as="geometry"/></mxCell><mxCell id="7" value="Title: String" style="text;align=left;verticalAlign=middle;spacingLeft=4;spacingRight=4;overflow=hidden;points=[[0,0.5],[1,0.5]];portConstraint=eastwest;rotatable=0;strokeColor=#000000;fontColor=#000000;labelBackgroundColor=none;fontStyle=5" parent="6" vertex="1"><mxGeometry y="30" width="240" height="30" as="geometry"/></mxCell><mxCell id="8" value="FirstYearEdition:  Int" style="text;align=left;verticalAlign=middle;spacingLeft=4;spacingRight=4;overflow=hidden;points=[[0,0.5],[1,0.5]];portConstraint=eastwest;rotatable=0;strokeColor=#000000;fontColor=#000000;labelBackgroundColor=none;fontStyle=5" parent="6" vertex="1"><mxGeometry y="60" width="240" height="30" as="geometry"/></mxCell><mxCell id="93" value="ISBN:  Int" style="text;align=left;verticalAlign=middle;spacingLeft=4;spacingRight=4;overflow=hidden;points=[[0,0.5],[1,0.5]];portConstraint=eastwest;rotatable=0;strokeColor=#000000;fontColor=#000000;labelBackgroundColor=none;fontStyle=5" parent="6" vertex="1"><mxGeometry y="90" width="240" height="30" as="geometry"/></mxCell><mxCell id="10" value="Description:  String" style="text;align=left;verticalAlign=middle;spacingLeft=4;spacingRight=4;overflow=hidden;points=[[0,0.5],[1,0.5]];portConstraint=eastwest;rotatable=0;strokeColor=#000000;fontColor=#000000;labelBackgroundColor=none;fontStyle=1" parent="6" vertex="1"><mxGeometry y="120" width="240" height="30" as="geometry"/></mxCell><mxCell id="2" value="edition" style="swimlane;fontStyle=1;childLayout=stackLayout;horizontal=1;startSize=30;horizontalStack=0;resizeParent=1;resizeParentMax=0;resizeLast=0;collapsible=1;marginBottom=0;strokeColor=#10739e;labelBackgroundColor=none;fillColor=#b1ddf0;fontColor=#000000;" parent="66" vertex="1"><mxGeometry x="140" y="430" width="240" height="180" as="geometry"/></mxCell><mxCell id="5" value="ISBN:  Int" style="text;align=left;verticalAlign=middle;spacingLeft=4;spacingRight=4;overflow=hidden;points=[[0,0.5],[1,0.5]];portConstraint=eastwest;rotatable=0;strokeColor=#000000;fontColor=#000000;labelBackgroundColor=none;fontStyle=5" parent="2" vertex="1"><mxGeometry y="30" width="240" height="30" as="geometry"/></mxCell><mxCell id="95" value="bookFirstYearEdition:  Int" style="text;align=left;verticalAlign=middle;spacingLeft=4;spacingRight=4;overflow=hidden;points=[[0,0.5],[1,0.5]];portConstraint=eastwest;rotatable=0;strokeColor=#000000;fontColor=#000000;labelBackgroundColor=none;fontStyle=5" parent="2" vertex="1"><mxGeometry y="60" width="240" height="30" as="geometry"/></mxCell><mxCell id="94" value="bookTitle: String" style="text;align=left;verticalAlign=middle;spacingLeft=4;spacingRight=4;overflow=hidden;points=[[0,0.5],[1,0.5]];portConstraint=eastwest;rotatable=0;strokeColor=#000000;fontColor=#000000;labelBackgroundColor=none;fontStyle=5" parent="2" vertex="1"><mxGeometry y="90" width="240" height="30" as="geometry"/></mxCell><mxCell id="3" value="EditorName: String" style="text;align=left;verticalAlign=middle;spacingLeft=4;spacingRight=4;overflow=hidden;points=[[0,0.5],[1,0.5]];portConstraint=eastwest;rotatable=0;strokeColor=#000000;fontColor=#000000;labelBackgroundColor=none;fontStyle=1" parent="2" vertex="1"><mxGeometry y="120" width="240" height="30" as="geometry"/></mxCell><mxCell id="4" value="Year: Int" style="text;align=left;verticalAlign=middle;spacingLeft=4;spacingRight=4;overflow=hidden;points=[[0,0.5],[1,0.5]];portConstraint=eastwest;rotatable=0;strokeColor=#000000;fontColor=#000000;labelBackgroundColor=none;fontStyle=1" parent="2" vertex="1"><mxGeometry y="150" width="240" height="30" as="geometry"/></mxCell><mxCell id="27" value="hasWriten" style="swimlane;fontStyle=1;childLayout=stackLayout;horizontal=1;startSize=30;horizontalStack=0;resizeParent=1;resizeParentMax=0;resizeLast=0;collapsible=1;marginBottom=0;strokeColor=#ae4132;labelBackgroundColor=none;fillColor=#fad9d5;fontColor=#000000;" parent="66" vertex="1"><mxGeometry x="860" y="110" width="240" height="120" as="geometry"/></mxCell><mxCell id="30" value="AuthorId: Int" style="text;align=left;verticalAlign=middle;spacingLeft=4;spacingRight=4;overflow=hidden;points=[[0,0.5],[1,0.5]];portConstraint=eastwest;rotatable=0;strokeColor=#000000;fontColor=#000000;labelBackgroundColor=none;fontStyle=5" parent="27" vertex="1"><mxGeometry y="30" width="240" height="30" as="geometry"/></mxCell><mxCell id="32" value="bookFirstYearEditiion:  Int" style="text;align=left;verticalAlign=middle;spacingLeft=4;spacingRight=4;overflow=hidden;points=[[0,0.5],[1,0.5]];portConstraint=eastwest;rotatable=0;strokeColor=#000000;fontColor=#000000;labelBackgroundColor=none;fontStyle=5" parent="27" vertex="1"><mxGeometry y="60" width="240" height="30" as="geometry"/></mxCell><mxCell id="33" value="bookTitle: String" style="text;align=left;verticalAlign=middle;spacingLeft=4;spacingRight=4;overflow=hidden;points=[[0,0.5],[1,0.5]];portConstraint=eastwest;rotatable=0;strokeColor=#000000;fontColor=#000000;labelBackgroundColor=none;fontStyle=5" parent="27" vertex="1"><mxGeometry y="90" width="240" height="30" as="geometry"/></mxCell><mxCell id="22" value="autor" style="swimlane;fontStyle=1;childLayout=stackLayout;horizontal=1;startSize=30;horizontalStack=0;resizeParent=1;resizeParentMax=0;resizeLast=0;collapsible=1;marginBottom=0;strokeColor=#10739e;labelBackgroundColor=none;fillColor=#b1ddf0;fontColor=#000000;" parent="66" vertex="1"><mxGeometry x="140" y="670" width="200" height="150" as="geometry"/></mxCell><mxCell id="91" value="Id: Int" style="text;align=left;verticalAlign=middle;spacingLeft=4;spacingRight=4;overflow=hidden;points=[[0,0.5],[1,0.5]];portConstraint=eastwest;rotatable=0;strokeColor=#000000;fontColor=#000000;labelBackgroundColor=none;fontStyle=5" parent="22" vertex="1"><mxGeometry y="30" width="200" height="30" as="geometry"/></mxCell><mxCell id="23" value="Name: String" style="text;align=left;verticalAlign=middle;spacingLeft=4;spacingRight=4;overflow=hidden;points=[[0,0.5],[1,0.5]];portConstraint=eastwest;rotatable=0;strokeColor=#000000;fontColor=#000000;labelBackgroundColor=none;fontStyle=1" parent="22" vertex="1"><mxGeometry y="60" width="200" height="30" as="geometry"/></mxCell><mxCell id="24" value="Surname: String" style="text;align=left;verticalAlign=middle;spacingLeft=4;spacingRight=4;overflow=hidden;points=[[0,0.5],[1,0.5]];portConstraint=eastwest;rotatable=0;strokeColor=#000000;fontColor=#000000;labelBackgroundColor=none;fontStyle=1" parent="22" vertex="1"><mxGeometry y="90" width="200" height="30" as="geometry"/></mxCell><mxCell id="25" value="BirthDate: Date" style="text;align=left;verticalAlign=middle;spacingLeft=4;spacingRight=4;overflow=hidden;points=[[0,0.5],[1,0.5]];portConstraint=eastwest;rotatable=0;strokeColor=#000000;fontColor=#000000;labelBackgroundColor=none;fontStyle=1" parent="22" vertex="1"><mxGeometry y="120" width="200" height="30" as="geometry"/></mxCell><mxCell id="83" value="copyOfBook" style="swimlane;fontStyle=1;childLayout=stackLayout;horizontal=1;startSize=30;horizontalStack=0;resizeParent=1;resizeParentMax=0;resizeLast=0;collapsible=1;marginBottom=0;strokeColor=#10739e;labelBackgroundColor=none;fillColor=#b1ddf0;fontColor=#000000;" parent="66" vertex="1"><mxGeometry x="475" y="430" width="250" height="120" as="geometry"/></mxCell><mxCell id="84" value="Id: Int" style="text;align=left;verticalAlign=middle;spacingLeft=4;spacingRight=4;overflow=hidden;points=[[0,0.5],[1,0.5]];portConstraint=eastwest;rotatable=0;strokeColor=#000000;fontColor=#000000;labelBackgroundColor=none;fontStyle=5" parent="83" vertex="1"><mxGeometry y="30" width="250" height="30" as="geometry"/></mxCell><mxCell id="85" value="BookTitle: String" style="text;align=left;verticalAlign=middle;spacingLeft=4;spacingRight=4;overflow=hidden;points=[[0,0.5],[1,0.5]];portConstraint=eastwest;rotatable=0;strokeColor=#000000;fontColor=#000000;labelBackgroundColor=none;fontStyle=5" parent="83" vertex="1"><mxGeometry y="60" width="250" height="30" as="geometry"/></mxCell><mxCell id="86" value="BookFirstYearEdition:  Int" style="text;align=left;verticalAlign=middle;spacingLeft=4;spacingRight=4;overflow=hidden;points=[[0,0.5],[1,0.5]];portConstraint=eastwest;rotatable=0;strokeColor=#000000;fontColor=#000000;labelBackgroundColor=none;fontStyle=5" parent="83" vertex="1"><mxGeometry y="90" width="250" height="30" as="geometry"/></mxCell><mxCell id="96" value="hasEdited" style="swimlane;fontStyle=1;childLayout=stackLayout;horizontal=1;startSize=30;horizontalStack=0;resizeParent=1;resizeParentMax=0;resizeLast=0;collapsible=1;marginBottom=0;strokeColor=#ae4132;labelBackgroundColor=none;fillColor=#fad9d5;fontColor=#000000;" parent="66" vertex="1"><mxGeometry x="1250" y="430" width="240" height="150" as="geometry"/></mxCell><mxCell id="98" value="bookFirstYearEditiion:  Int" style="text;align=left;verticalAlign=middle;spacingLeft=4;spacingRight=4;overflow=hidden;points=[[0,0.5],[1,0.5]];portConstraint=eastwest;rotatable=0;strokeColor=#000000;fontColor=#000000;labelBackgroundColor=none;fontStyle=5" parent="96" vertex="1"><mxGeometry y="30" width="240" height="30" as="geometry"/></mxCell><mxCell id="99" value="bookTitle: String" style="text;align=left;verticalAlign=middle;spacingLeft=4;spacingRight=4;overflow=hidden;points=[[0,0.5],[1,0.5]];portConstraint=eastwest;rotatable=0;strokeColor=#000000;fontColor=#000000;labelBackgroundColor=none;fontStyle=5" parent="96" vertex="1"><mxGeometry y="60" width="240" height="30" as="geometry"/></mxCell><mxCell id="97" value="Editor: ISBN" style="text;align=left;verticalAlign=middle;spacingLeft=4;spacingRight=4;overflow=hidden;points=[[0,0.5],[1,0.5]];portConstraint=eastwest;rotatable=0;strokeColor=#000000;fontColor=#000000;labelBackgroundColor=none;fontStyle=5" parent="96" vertex="1"><mxGeometry y="90" width="240" height="30" as="geometry"/></mxCell><mxCell id="100" value="EditionYear: Integer" style="text;align=left;verticalAlign=middle;spacingLeft=4;spacingRight=4;overflow=hidden;points=[[0,0.5],[1,0.5]];portConstraint=eastwest;rotatable=0;strokeColor=#000000;fontColor=#000000;labelBackgroundColor=none;fontStyle=5" parent="96" vertex="1"><mxGeometry y="120" width="240" height="30" as="geometry"/></mxCell></root></mxGraphModel></diagram></mxfile>